{"title":"Spellbound(1945)MP-4[DaScubaDude]","uid":12352417,"size":1420423975,"categoryP":"video","categoryS":"movies","magnet":"?xt=urn:btih:5c1e129211d25f0917025dedea2788d450a99a0b&amp;dn=Spellbound%281945%29MP-4%5BDaScubaDude%5D&amp;tr=udp%3A%2F%2Ftracker.openbittorrent.com%3A80&amp;tr=udp%3A%2F%2Fopen.demonii.com%3A1337&amp;tr=udp%3A%2F%2Ftracker.coppersurfer.tk%3A6969&amp;tr=udp%3A%2F%2Fexodus.desync.com%3A6969","seeders":2,"leechers":0,"uploader":"dascuba","files":1,"time":1441442213,"description":"Spellbound (1945)\nUnrated  |  111 min  |  Film-Noir, Mystery, Romance  |  28 December 1945 (USA)\n7.7 Your rating:   -/10   Ratings: 7.7/10 from 30,546 users   \nReviews: 151 user | 97 critic\nA psychiatrist protects the identity of an amnesia patient accused of murder while attempting to recover his memory.\n\nDirector: Alfred Hitchcock\nWriters: Ben Hecht (screen play), Frances Beeding (suggested by novel: &quot;The House of Dr. Edwardes&quot;), 4 more credits Â»\nStars: Ingrid Bergman, Gregory Peck, Michael Chekhov\n\nGeneral\nComplete name                            : C:SpellboundSPELLBOUND_Title3.mp4\nFormat                                   : MPEG-4\nFormat profile                           : Base Media\nCodec ID                                 : isom\nFile size                                : 1.32 GiB\nDuration                                 : 1h 58mn\nOverall bit rate mode                    : Constant\nOverall bit rate                         : 1 604 Kbps\nMovie name                               : SPELLBOUND\nGenre                                    : Mystery\nWriting application                      : Lavf54.6.100\n\nVideo\nID                                       : 1\nFormat                                   : MPEG-4 Visual\nFormat settings, BVOP                    : No\nFormat settings, QPel                    : No\nFormat settings, GMC                     : No warppoints\nFormat settings, Matrix                  : Default (H.263)\nCodec ID                                 : 20\nDuration                                 : 1h 58mn\nBit rate mode                            : Constant\nBit rate                                 : 1 470 Kbps\nWidth                                    : 720 pixels\nHeight                                   : 540 pixels\nDisplay aspect ratio                     : 4:3\nFrame rate mode                          : Constant\nFrame rate                               : 29.970 fps\nColor space                              : YUV\nChroma subsampling                       : 4:2:0\nBit depth                                : 8 bits\nScan type                                : Progressive\nCompression mode                         : Lossy\nBits/(Pixel*Frame)                       : 0.126\nStream size                              : 1.21 GiB (92%)\nWriting library                          : Lavc54.23.100\n\nAudio\nID                                       : 2\nFormat                                   : MPEG Audio\nFormat version                           : Version 1\nFormat profile                           : Layer 3\nCodec ID                                 : 6B\nDuration                                 : 1h 58mn\nBit rate mode                            : Constant\nBit rate                                 : 128 Kbps\nChannel(s)                               : 2 channels\nSampling rate                            : 44.1 KHz\nCompression mode                         : Lossy\nStream size                              : 108 MiB (8%)\nWriting library                          : LAME3.99.5","torrent":{"xt":"urn:btih:5c1e129211d25f0917025dedea2788d450a99a0b","amp;dn":"Spellbound%281945%29MP-4%5BDaScubaDude%5D","amp;tr":["udp%3A%2F%2Ftracker.openbittorrent.com%3A80","udp%3A%2F%2Fopen.demonii.com%3A1337","udp%3A%2F%2Ftracker.coppersurfer.tk%3A6969","udp%3A%2F%2Fexodus.desync.com%3A6969"],"infoHash":"5c1e129211d25f0917025dedea2788d450a99a0b","infoHashBuffer":{"type":"Buffer","data":[92,30,18,146,17,210,95,9,23,2,93,237,234,39,136,212,80,169,154,11]},"announce":[],"urlList":[]}}